nColumns=19
nRows=33
DataType=double
version=3
OpenSimVersion=4.1
endheader
time	ground_force_calcn_l_vx	ground_force_calcn_l_vy	ground_force_calcn_l_vz	ground_force_calcn_l_px	ground_force_calcn_l_py	ground_force_calcn_l_pz	ground_force_calcn_l_mx	ground_force_calcn_l_my	ground_force_calcn_l_mz	ground_force_calcn_r_vx	ground_force_calcn_r_vy	ground_force_calcn_r_vz	ground_force_calcn_r_px	ground_force_calcn_r_py	ground_force_calcn_r_pz	ground_force_calcn_r_mx	ground_force_calcn_r_my	ground_force_calcn_r_mz
0	0	0	0	0	0.273453	0	0	0	0	0	0	0	0	0.047209	0	0	0	0
0.00999083	0	0	0	0	-3.64985e-17	0	0	0	0	152.885	937.293	48.2047	-0.329992	-3.64985e-17	-0.0486888	3.69588	22.6583	1.16531
0.0199817	0	0	0	0	-3.54395e-17	0	0	0	0	139.811	903.641	47.7363	-0.320466	-3.54395e-17	-0.050624	3.32138	21.467	1.13403
0.0299725	0	0	0	0	-3.43836e-17	0	0	0	0	126.843	869.33	47.2127	-0.310961	-3.43836e-17	-0.0526536	2.94347	20.1733	1.0956
0.0399633	0	0	0	0	-3.33416e-17	0	0	0	0	114.077	834.032	46.5754	-0.301569	-3.33416e-17	-0.0547817	2.56208	18.7316	1.04604
0.0499541	0	0	0	0	-3.23141e-17	0	0	0	0	101.51	797.64	45.7675	-0.292296	-3.23141e-17	-0.0569855	2.18723	17.1867	0.986148
0.059945	0	0	0	0	-3.12936e-17	0	0	0	0	89.3192	760.255	44.6778	-0.283072	-3.12936e-17	-0.0592186	1.83156	15.5896	0.916151
0.0699358	0	0	0	0	-3.02761e-17	0	0	0	0	77.7306	722.247	43.2573	-0.27386	-3.02761e-17	-0.0614294	1.50186	13.9547	0.835787
0.0799266	0	0	0	0	-2.92717e-17	0	0	0	0	66.7302	684.159	41.4866	-0.264753	-2.92717e-17	-0.0635888	1.20675	12.3723	0.750241
0.0899174	0	0	0	0	-2.82829e-17	0	0	0	0	56.4639	646.727	39.435	-0.255774	-2.82829e-17	-0.0656861	0.948485	10.8638	0.662433
0.0999083	0	0	0	0	-2.73022e-17	0	0	0	0	47.1102	610.828	37.1785	-0.246847	-2.73022e-17	-0.067747	0.720033	9.3359	0.568236
0.109899	0	0	0	0	-2.63205e-17	0	0	0	0	38.6544	577.292	34.7203	-0.237896	-2.63205e-17	-0.0697596	0.528711	7.89613	0.474901
0.11989	0	0	0	0	-2.5337e-17	0	0	0	0	31.0856	546.858	32.0923	-0.228926	-2.5337e-17	-0.07164	0.37652	6.62375	0.388714
0.129881	0	0	0	0	-2.43559e-17	0	0	0	0	24.4768	520.204	29.4639	-0.219973	-2.43559e-17	-0.0733341	0.257103	5.46421	0.309488
0.139872	0	0	0	0	-2.33726e-17	0	0	0	0	18.779	497.904	26.9092	-0.211006	-2.33726e-17	-0.0748689	0.16835	4.46362	0.241236
0.149862	0	0	0	0	-2.23853e-17	0	0	0	0	13.7828	480.316	24.4738	-0.202017	-2.23853e-17	-0.0763048	0.104892	3.65536	0.186254
0.159853	0	0	0	0	-2.13966e-17	0	0	0	0	9.40565	467.566	22.2919	-0.193027	-2.13966e-17	-0.077654	0.0597054	2.96802	0.141505
0.169844	0	0	0	0	-2.03996e-17	0	0	0	0	5.49438	459.649	20.5075	-0.183972	-2.03996e-17	-0.0789315	0.0278991	2.33398	0.104132
0.179835	0	0	0	0	-1.93818e-17	0	0	0	0	1.7365	456.408	19.2428	-0.174743	-1.93818e-17	-0.0802042	0.00677712	1.78124	0.0750998
0.189826	0	0	0	0	-1.83402e-17	0	0	0	0	-2.05842	457.63	18.5323	-0.165312	-1.83402e-17	-0.0815012	-0.0058082	1.29128	0.052292
0.199817	0	0	0	0	-1.72835e-17	0	0	0	0	-6.01359	463.063	18.3332	-0.155751	-1.72835e-17	-0.0828248	-0.010616	0.81746	0.0323641
0.209807	0	0	0	0	-1.6215e-17	0	0	0	0	-10.3556	472.366	18.5565	-0.146089	-1.6215e-17	-0.0842027	-0.00811002	0.369936	0.0145326
0.219798	0	0	0	0	-1.51232e-17	0	0	0	0	-15.2105	485.177	19.159	-0.136216	-1.51232e-17	-0.0856348	0.00392467	-0.125188	-0.0049435
0.229789	0	0	0	0	-1.4003e-17	0	0	0	0	-20.5481	501.112	20.0786	-0.126075	-1.4003e-17	-0.0870572	0.0319481	-0.779126	-0.0312181
0.23978	0	0	0	0	-1.28646e-17	0	0	0	0	-26.4241	519.786	21.2501	-0.115763	-1.28646e-17	-0.0884361	0.0789649	-1.55331	-0.0635031
0.249771	0	0	0	0	-1.17233e-17	0	0	0	0	-32.8777	540.843	22.6343	-0.105423	-1.17233e-17	-0.0897761	0.143585	-2.36199	-0.0988495
0.259761	0	0	0	0	-1.05777e-17	0	0	0	0	-39.7732	563.965	24.2294	-0.0950412	-1.05777e-17	-0.0910561	0.226897	-3.2173	-0.138223
0.269752	0	0	0	0	-9.42846e-18	0	0	0	0	-47.0415	588.756	26.0336	-0.0846205	-9.42846e-18	-0.0922675	0.331392	-4.14759	-0.183398
0.279743	0	0	0	0	-8.28237e-18	0	0	0	0	-54.6902	614.719	28.0474	-0.074222	-8.28237e-18	-0.0934068	0.457734	-5.14494	-0.234745
0.289734	0	0	0	0	-7.13859e-18	0	0	0	0	-62.6595	641.321	30.3284	-0.0638327	-7.13859e-18	-0.0944616	0.6101	-6.24438	-0.2953
0.299725	0	0	0	0	-5.98778e-18	0	0	0	0	-70.9153	668.047	32.8884	-0.0533651	-5.98778e-18	-0.0954696	0.79231	-7.46384	-0.36745
0.309716	0	0	0	0	-4.82812e-18	0	0	0	0	-79.5494	694.398	35.6823	-0.042804	-4.82812e-18	-0.0964611	1.00407	-8.76465	-0.450379
0.319706	0	0	0	0	-3.66918e-18	0	0	0	0	-88.5488	719.806	38.6529	-0.0322339	-3.66918e-18	-0.0974255	1.24869	-10.1505	-0.545071
